<svg id="magnifying_glass" data-name="magnifying glass" xmlns="http://www.w3.org/2000/svg" viewBox="0 0 471 471">
  <defs>
    <style>.cls-1{fill:#fff;stroke:#ccc;stroke-miterlimit:10;stroke-width:8px;}
    </style>
  </defs>
  <title>maginfyingglass</title>
  <circle id="outterCircle" class="cls-1" cx="235.5" cy="235.5" r="231.5"/>
  <g id="glass">
    <g id="glass-2" data-name="glass">
      <circle class="cls-1" cx="159.07" cy="165.78" r="74.34"/>
      <path class="cls-1" d="M658.07,466.94a21.41,21.41,0,0,1-.14,30.18h0a21.4,21.4,0,0,1-30.17.14L493.3,362.8c-9.09-9.09,7.1-7.1,15.4-15.39h0c8.29-8.3,5.82-24,14.91-14.92Z" transform="translate(-293 -125)"/>
      <path class="cls-1" d="M524.61,395.12,494.3,364.8c-9.09-9.09,7.1-7.1,15.4-15.39h0c8.29-8.3,5.82-24,14.91-14.92l30.32,30.31Z" transform="translate(-293 -125)"/>
    </g>
  </g>
    <path id="details" class="cls-1" d="M418.8,324.06a47.05,47.05,0,0,1,0-66.55" transform="translate(-293 -125)"/>
  </svg>
